<svg width="572" height="265" viewBox="0 0 572 265" fill="none" xmlns="http://www.w3.org/2000/svg">
<path d="M28.2718 107.825H23.345C15.3494 107.825 9.40921 115.337 11.3714 123.161C11.3717 123.162 11.372 123.164 11.3722 123.165C11.3727 123.167 11.3732 123.169 11.3737 123.171L12.5412 127.83C12.5416 127.832 12.5421 127.834 12.5426 127.835C12.5428 127.836 12.5431 127.837 12.5433 127.838C12.9413 129.428 13.6368 130.878 14.5606 132.137C14.2754 133.553 14.1243 135.022 14.1243 136.533V145.887C14.1243 150.091 15.3048 153.954 17.2493 157.231V164.594C17.2493 173.582 24.5467 180.83 33.4993 180.83H39.7493C47.4105 180.83 53.8596 175.522 55.5607 168.358H86.438C88.1391 175.522 94.5882 180.83 102.249 180.83H108.499C117.452 180.83 124.749 173.582 124.749 164.594V157.232C126.695 153.954 127.874 150.091 127.874 145.887V136.533C127.874 135.023 127.723 133.554 127.439 132.139C128.363 130.88 129.059 129.429 129.457 127.838C129.458 127.837 129.458 127.835 129.459 127.834C129.459 127.832 129.459 127.831 129.46 127.83L130.629 123.161L130.63 123.158C132.586 115.341 126.655 107.825 118.654 107.825H113.725L112.993 105.999C112.993 105.999 112.992 105.998 112.992 105.998C108.127 93.8595 96.4742 86 83.4017 86H58.597C45.526 86 33.8713 93.8598 29.0047 105.997L29.0046 105.998L28.2718 107.825ZM41.9605 136.974C42.0028 136.94 42.045 136.907 42.0869 136.875C42.1481 136.93 42.2091 136.987 42.27 137.048C43.3121 138.085 43.4993 139.207 43.4993 139.631C43.4993 140.055 43.3121 141.178 42.27 142.215C42.0607 142.423 41.8487 142.596 41.6406 142.739C40.8172 143.308 40.0537 143.415 39.7493 143.415C39.5329 143.415 39.3355 143.404 39.1588 143.386C39.1379 143.194 39.1243 142.978 39.1243 142.739C39.1243 141.969 39.268 140.95 39.7493 139.857C39.778 139.792 39.8079 139.726 39.839 139.661C39.8436 139.651 39.8483 139.641 39.853 139.631C40.4102 138.469 41.1903 137.586 41.9605 136.974ZM37.947 143.093C37.9471 143.093 37.9492 143.094 37.9532 143.097C37.949 143.094 37.9469 143.093 37.947 143.093ZM39.4589 144.59C39.4612 144.594 39.4622 144.596 39.4621 144.596C39.462 144.596 39.4609 144.594 39.4589 144.59ZM44.1741 135.832C44.2511 135.815 44.2672 135.817 44.2077 135.827C44.1984 135.828 44.1873 135.83 44.1741 135.832ZM97.791 135.827C97.7315 135.817 97.7477 135.815 97.8246 135.832C97.8114 135.83 97.8003 135.828 97.791 135.827ZM99.9118 136.875C99.9537 136.907 99.9959 136.94 100.038 136.974C100.808 137.586 101.589 138.469 102.146 139.631C102.15 139.641 102.155 139.651 102.16 139.661C102.191 139.726 102.221 139.792 102.249 139.857C102.731 140.95 102.874 141.969 102.874 142.739C102.874 142.978 102.861 143.194 102.84 143.386C102.663 143.404 102.466 143.415 102.249 143.415C101.945 143.415 101.181 143.308 100.358 142.739C100.15 142.596 99.938 142.423 99.7287 142.215C98.6866 141.178 98.4994 140.055 98.4994 139.631C98.4994 139.207 98.6866 138.085 99.7287 137.048C99.7896 136.987 99.8507 136.93 99.9118 136.875Z" fill="black" stroke="black" stroke-width="20"/>
<path d="M33.6456 107.858L33.6455 107.858L31.6541 112.825H23.345C18.5845 112.825 15.0548 117.296 16.2215 121.946C16.2216 121.947 16.2218 121.947 16.2219 121.948C16.2222 121.949 16.2224 121.95 16.2226 121.951L17.3923 126.619C17.3925 126.62 17.3927 126.621 17.393 126.621C17.3931 126.622 17.3932 126.622 17.3934 126.623C17.8169 128.315 18.8081 129.743 20.1309 130.727C19.4824 132.534 19.1243 134.486 19.1243 136.533V145.887C19.1243 149.604 20.3171 152.992 22.2493 155.768V164.594C22.2493 170.81 27.2974 175.83 33.4993 175.83H39.7493C45.9512 175.83 50.9993 170.81 50.9993 164.594V163.358H90.9994V164.594C90.9994 170.81 96.0475 175.83 102.249 175.83H108.499C114.701 175.83 119.749 170.81 119.749 164.594V155.769C121.682 152.993 122.874 149.605 122.874 145.887V136.533C122.874 134.486 122.516 132.535 121.868 130.728C123.192 129.744 124.184 128.316 124.607 126.623C124.608 126.622 124.608 126.62 124.608 126.619L125.779 121.946L125.78 121.945C126.942 117.298 123.417 112.825 118.654 112.825H110.343L108.352 107.859C108.351 107.859 108.351 107.858 108.351 107.858C104.249 97.6219 94.437 91 83.4017 91H58.597C47.5635 91 37.7498 97.622 33.6456 107.858ZM54.5327 116.212C54.5327 116.212 54.5328 116.212 54.5329 116.211C55.1945 114.562 56.8008 113.472 58.597 113.472H83.4017C85.198 113.472 86.8042 114.562 87.4658 116.211C87.4659 116.212 87.466 116.212 87.4661 116.212L88.6083 119.061H53.3904L54.5327 116.212ZM39.7493 140.848C39.0025 140.848 38.7722 140.621 38.744 140.593L38.7438 140.593C38.7169 140.566 38.4993 140.35 38.4993 139.631C38.4993 138.913 38.7169 138.696 38.7438 138.67L38.744 138.67C38.7712 138.642 38.9862 138.431 39.671 138.416C39.7173 138.429 39.9508 138.488 40.378 138.724C40.966 139.049 41.6554 139.566 42.3171 140.224C42.5379 140.443 42.7427 140.666 42.9296 140.886C42.8856 140.886 42.8412 140.887 42.7962 140.887C42.3231 140.887 41.8412 140.878 41.3235 140.868L41.2602 140.867C40.7779 140.858 40.2529 140.848 39.7493 140.848ZM102.249 140.848C101.746 140.848 101.221 140.858 100.738 140.867L100.675 140.868C100.158 140.878 99.6756 140.887 99.2025 140.887C99.1575 140.887 99.1131 140.886 99.0691 140.886C99.2561 140.666 99.4608 140.443 99.6816 140.224C100.343 139.566 101.033 139.049 101.621 138.724C102.048 138.488 102.281 138.429 102.328 138.416C103.012 138.431 103.227 138.642 103.255 138.67L103.255 138.67C103.282 138.696 103.499 138.913 103.499 139.631C103.499 140.35 103.282 140.566 103.255 140.593L103.255 140.593C103.226 140.621 102.996 140.848 102.249 140.848Z" fill="black" stroke="white" stroke-width="10"/>
<circle cx="288.5" cy="132.5" r="127.5" fill="white" stroke="black" stroke-width="10"/>
<path d="M288.5 246C258.398 246 229.529 234.042 208.243 212.757C186.958 191.471 175 162.602 175 132.5C175 102.398 186.958 73.5288 208.243 52.2434C229.529 30.958 258.398 19 288.5 19L288.5 132.5L288.5 246Z" fill="#C4C4C4"/>
<path d="M288.5 19C318.602 19 347.471 30.958 368.757 52.2434C390.042 73.5288 402 102.398 402 132.5C402 162.602 390.042 191.471 368.757 212.757C347.471 234.042 318.602 246 288.5 246L288.5 132.5L288.5 19Z" fill="#28A745"/>
<rect x="284" y="13" width="9" height="237" fill="white"/>
<path d="M469.322 186.438L469.323 186.433L478.323 150.612L478.862 148.467C477.248 148.736 475.571 148.694 473.934 148.304L473.927 148.303L457.374 144.35L457.372 144.35C451.039 142.835 446.61 136.437 448.385 129.618C448.386 129.614 448.387 129.61 448.388 129.607L454.964 104.194L454.967 104.183L454.97 104.172C459.004 88.766 475.067 79.9349 490.431 83.6005L490.435 83.6015C495.489 84.8101 499.33 89.1289 499.773 94.2895C500.997 93.5839 502.289 92.9876 503.633 92.5114C500.146 88.852 498.002 83.9031 498.002 78.4397C498.002 67.1144 507.216 58 518.502 58C529.787 58 539.002 67.1144 539.002 78.4397C539.002 86.7431 534.049 93.8581 526.957 97.0638C527.283 97.3541 527.602 97.6544 527.913 97.9646C527.915 97.9663 527.917 97.968 527.918 97.9697L536.584 106.594C538.502 102.377 542.762 99.4655 547.669 99.4655H551.836C558.515 99.4655 564.003 104.862 564 111.612C564 111.615 564 111.618 564 111.621M469.322 186.438L543.5 194.546C543.5 196.837 545.364 198.692 547.666 198.692H551.833C554.135 198.692 556 196.837 556 194.546V111.612L564 111.621M469.322 186.438C467.126 195.197 472.476 204.026 481.203 206.202C482.571 206.545 483.907 206.687 485.176 206.687C492.464 206.687 499.137 201.787 501.011 194.366L501.013 194.357L506.335 173.169V190.397C506.335 199.431 513.685 206.69 522.669 206.69C528.424 206.69 533.509 203.71 536.42 199.193M469.322 186.438L536.42 199.193M564 111.621L564 194.546C564 201.292 558.517 206.692 551.833 206.692H547.666C542.617 206.692 538.253 203.61 536.42 199.193M564 111.621L536.42 199.193M535.5 140.347V156.313C534.466 154.598 533.215 152.999 531.762 151.554L522.849 142.684L523.849 138.701C526.056 139.774 528.499 140.347 530.999 140.347H535.5Z" fill="black" stroke="black" stroke-width="16"/>
<path d="M492.716 109.736L492.716 109.735C494.874 101.15 502.589 95.1724 511.447 95.1724C516.589 95.1724 521.452 97.1716 525.094 100.802L536.104 111.759H539.502V111.612C539.502 107.094 543.176 103.466 547.669 103.466H551.836C556.326 103.466 560.003 107.091 560 111.612C560 111.614 560 111.615 560 111.617M492.716 109.736L543.5 194.546C543.5 196.837 545.364 198.692 547.666 198.692H551.833C554.135 198.692 556 196.837 556 194.546V111.612L560 111.617M492.716 109.736L485.705 137.653L485.705 137.653C485.187 139.716 485.215 141.877 485.785 143.925C486.356 145.973 487.448 147.838 488.955 149.338L488.956 149.338L510.335 170.614V190.397C510.335 197.203 515.876 202.69 522.669 202.69C529.461 202.69 535.002 197.203 535.002 190.397V168.951C535.002 163.454 532.841 158.27 528.941 154.389L518.415 143.915L521.433 131.902L522.287 132.752C524.599 135.053 527.733 136.347 530.999 136.347H539.5M492.716 109.736L539.5 136.347M560 111.617L560 194.546C560 199.064 556.326 202.692 551.833 202.692H547.666C543.174 202.692 539.5 199.064 539.5 194.546V136.347M560 111.617L539.5 136.347M473.202 187.408L473.202 187.41C471.547 194.014 475.579 200.679 482.174 202.321C483.198 202.579 484.205 202.687 485.176 202.687C490.686 202.687 495.72 198.98 497.132 193.387L497.133 193.382L503.706 167.215L504.26 165.009L502.648 163.405L488.903 149.727L483.917 144.764L482.202 151.587L473.202 187.408ZM484.829 138.568L484.831 138.563L495.548 97.3331C495.549 97.3321 495.549 97.331 495.549 97.3299C496.724 92.8285 493.815 88.5227 489.504 87.4918L489.502 87.4913C476.107 84.2953 462.285 92.0268 458.839 105.185L458.836 105.196L452.258 130.618C452.258 130.62 452.257 130.622 452.257 130.623C451.084 135.124 453.992 139.429 458.302 140.459L458.303 140.46L474.856 144.412L474.86 144.413C479.114 145.424 483.671 143.001 484.829 138.568ZM518.502 94.8793C527.596 94.8793 535.002 87.5374 535.002 78.4397C535.002 69.3419 527.596 62 518.502 62C509.407 62 502.002 69.3419 502.002 78.4397C502.002 87.5374 509.407 94.8793 518.502 94.8793Z" fill="white" stroke="white" stroke-width="8"/>
<path d="M477.082 188.383C475.967 192.83 478.681 197.332 483.144 198.441C483.824 198.612 484.504 198.687 485.176 198.687C488.907 198.687 492.303 196.173 493.254 192.408L499.827 166.24L486.082 152.562L477.082 188.383ZM480.959 137.557L491.678 96.3217C492.249 94.1395 490.861 91.9289 488.574 91.3821C477.147 88.6557 465.566 95.2876 462.709 106.198L456.128 131.63C455.558 133.812 456.946 136.022 459.232 136.569L475.785 140.521C478.074 141.066 480.389 139.739 480.959 137.557ZM551.836 107.466H547.669C545.367 107.466 543.502 109.321 543.502 111.612V115.759H534.453L522.27 103.635C519.382 100.756 515.536 99.1724 511.447 99.1724C504.41 99.1724 498.303 103.915 496.595 110.71L489.585 138.627C489.236 140.016 489.255 141.472 489.639 142.852C490.023 144.232 490.76 145.49 491.777 146.503L514.335 168.951V190.397C514.335 194.976 518.067 198.69 522.669 198.69C527.27 198.69 531.002 194.976 531.002 190.397V168.951C531.002 164.522 529.268 160.357 526.119 157.224L513.926 145.09C513.965 144.961 514.054 144.86 514.088 144.725L519.267 124.104L525.109 129.917C526.671 131.471 528.791 132.347 530.999 132.347H543.5V194.546C543.5 196.837 545.364 198.692 547.666 198.692H551.833C554.135 198.692 556 196.837 556 194.546V111.612C556.003 109.321 554.138 107.466 551.836 107.466ZM518.502 90.8793C525.406 90.8793 531.002 85.31 531.002 78.4397C531.002 71.5693 525.406 66 518.502 66C511.598 66 506.002 71.5693 506.002 78.4397C506.002 85.31 511.598 90.8793 518.502 90.8793Z" fill="black"/>
</svg>
